<svg id="visual" viewBox="0 0 900 600" width="900" height="600" xmlns="http://www.w3.org/2000/svg" xmlns:xlink="http://www.w3.org/1999/xlink" version="1.1"><path opacity="0.1" d="M0 410L21.5 417.7C43 425.3 86 440.7 128.8 440C171.7 439.3 214.3 422.7 257.2 420.7C300 418.7 343 431.3 385.8 431.3C428.7 431.3 471.3 418.7 514.2 420C557 421.3 600 436.7 642.8 436.8C685.7 437 728.3 422 771.2 420.8C814 419.7 857 432.3 878.5 438.7L900 445L900 601L878.5 601C857 601 814 601 771.2 601C728.3 601 685.7 601 642.8 601C600 601 557 601 514.2 601C471.3 601 428.7 601 385.8 601C343 601 300 601 257.2 601C214.3 601 171.7 601 128.8 601C86 601 43 601 21.5 601L0 601Z" fill="#7ff0db"></path><path opacity="0.1" d="M0 447L21.5 451.2C43 455.3 86 463.7 128.8 464.2C171.7 464.7 214.3 457.3 257.2 456.2C300 455 343 460 385.8 465C428.7 470 471.3 475 514.2 473C557 471 600 462 642.8 456.3C685.7 450.7 728.3 448.3 771.2 448C814 447.7 857 449.3 878.5 450.2L900 451L900 601L878.5 601C857 601 814 601 771.2 601C728.3 601 685.7 601 642.8 601C600 601 557 601 514.2 601C471.3 601 428.7 601 385.8 601C343 601 300 601 257.2 601C214.3 601 171.7 601 128.8 601C86 601 43 601 21.5 601L0 601Z" fill="#6ae3cb"></path><path opacity="0.1" d="M0 488L21.5 491C43 494 86 500 128.8 497.7C171.7 495.3 214.3 484.7 257.2 485.2C300 485.7 343 497.3 385.8 500.8C428.7 504.3 471.3 499.7 514.2 495.5C557 491.3 600 487.7 642.8 487.8C685.7 488 728.3 492 771.2 496C814 500 857 504 878.5 506L900 508L900 601L878.5 601C857 601 814 601 771.2 601C728.3 601 685.7 601 642.8 601C600 601 557 601 514.2 601C471.3 601 428.7 601 385.8 601C343 601 300 601 257.2 601C214.3 601 171.7 601 128.8 601C86 601 43 601 21.5 601L0 601Z" fill="#54d6bc"></path><path opacity="0.1" d="M0 516L21.5 518.7C43 521.3 86 526.7 128.8 529.8C171.7 533 214.3 534 257.2 532.3C300 530.7 343 526.3 385.8 522.2C428.7 518 471.3 514 514.2 516.2C557 518.3 600 526.7 642.8 530.5C685.7 534.3 728.3 533.7 771.2 530C814 526.3 857 519.7 878.5 516.3L900 513L900 601L878.5 601C857 601 814 601 771.2 601C728.3 601 685.7 601 642.8 601C600 601 557 601 514.2 601C471.3 601 428.7 601 385.8 601C343 601 300 601 257.2 601C214.3 601 171.7 601 128.8 601C86 601 43 601 21.5 601L0 601Z" fill="#3bc9ad"></path><path opacity="0.1" d="M0 548L21.5 548C43 548 86 548 128.8 549.2C171.7 550.3 214.3 552.7 257.2 553.5C300 554.3 343 553.7 385.8 554.3C428.7 555 471.3 557 514.2 555.8C557 554.7 600 550.3 642.8 550.2C685.7 550 728.3 554 771.2 554.8C814 555.7 857 553.3 878.5 552.2L900 551L900 601L878.5 601C857 601 814 601 771.2 601C728.3 601 685.7 601 642.8 601C600 601 557 601 514.2 601C471.3 601 428.7 601 385.8 601C343 601 300 601 257.2 601C214.3 601 171.7 601 128.8 601C86 601 43 601 21.5 601L0 601Z" fill="#16bd9d"></path></svg>